<svg xmlns="http://www.w3.org/2000/svg" viewBox="0 0 40 40" fill="none">
  <defs>
    <linearGradient id="g" x1="2" y1="4" x2="38" y2="36" gradientUnits="userSpaceOnUse">
      <stop offset="0" stop-color="#8f6b1f" />
      <stop offset="0.55" stop-color="#d4af37" />
      <stop offset="1" stop-color="#f6e27a" />
    </linearGradient>
      <linearGradient id="glass" x1="20" y1="17.5" x2="20" y2="21" gradientUnits="userSpaceOnUse">
      <stop offset="0" stop-color="#2f9fd8" stop-opacity="0.95" />
      <stop offset="1" stop-color="#2f9fd8" stop-opacity="0.45" />
    </linearGradient>
  </defs>
  <path d="M20 1.5 36 10.5v18L20 38.5 4 28.5v-18L20 1.5Z" fill="#06090c" stroke="url(#g)" stroke-width="1.5" stroke-linejoin="round" />
  <path d="M11.4 23.4c-2.4-.6-4.5-1.9-6.1-3.9" stroke="url(#g)" stroke-width="1.1" stroke-linecap="round" />
  <path d="M11.4 21.2c-1.9-.5-3.5-1.5-4.9-2.9" stroke="url(#g)" stroke-width="0.9" stroke-linecap="round" opacity="0.75" />
  <path d="M28.6 23.4c2.4-.6 4.5-1.9 6.1-3.9" stroke="url(#g)" stroke-width="1.1" stroke-linecap="round" />
  <path d="M28.6 21.2c1.9-.5 3.5-1.5 4.9-2.9" stroke="url(#g)" stroke-width="0.9" stroke-linecap="round" opacity="0.75" />
  <path d="M11.5 24.8c0-1 .8-1.9 1.8-2.1l2.3-.5 2.4-3.4c.6-.9 1.7-1.4 2.8-1.4h.4c1.1 0 2.2.5 2.8 1.4l2.4 3.4 2.3.5c1 .2 1.8 1.1 1.8 2.1v.9c0 .6-.5 1-1 1h-1.1a2.2 2.2 0 0 1-4.3 0h-6.2a2.2 2.2 0 0 1-4.3 0h-1.1c-.6 0-1-.4-1-1v-.9Z" stroke="url(#g)" stroke-width="1.4" stroke-linejoin="round" />
  <path d="M17 20.6 18.3 18.8c.6-.8 1.7-1.2 2.7-1.2h.3c1 0 2.1.4 2.7 1.2l1 1.8Z" fill="url(#glass)" />
  <path d="M15.5 20.8h9" stroke="url(#g)" stroke-width="1.3" stroke-linecap="round" />
  <circle cx="16" cy="25.6" r="1.5" stroke="url(#g)" stroke-width="0.9" />
  <circle cx="24" cy="25.6" r="1.5" stroke="url(#g)" stroke-width="0.9" />
  <path d="M20 6.2 20.9 8l2 .3-1.45 1.4.35 2-1.8-.95-1.8.95.35-2L16.6 8.3l2-.3.4-1.8Z" fill="url(#g)" />
</svg>
