<svg xmlns="http://www.w3.org/2000/svg" viewBox="0 0 40 40" fill="none">
  <defs>
    <linearGradient id="g" x1="2" y1="4" x2="38" y2="36" gradientUnits="userSpaceOnUse">
      <stop offset="0" stop-color="#0f5f8c" />
      <stop offset="0.55" stop-color="#0ea5c4" />
      <stop offset="1" stop-color="#f2a922" />
    </linearGradient>
  </defs>
  <path d="M20 1.5 36 10.5v18L20 38.5 4 28.5v-18L20 1.5Z" fill="#06090c" stroke="url(#g)" stroke-width="1.5" stroke-linejoin="round" />
  <path d="M15 24c-3.4-.4-6.2-2-8.2-4.6" stroke="url(#g)" stroke-width="1.1" stroke-linecap="round" />
  <path d="M15 21.3c-2.6-.4-4.8-1.6-6.4-3.6" stroke="url(#g)" stroke-width="0.9" stroke-linecap="round" opacity="0.75" />
  <path d="M25 24c3.4-.4 6.2-2 8.2-4.6" stroke="url(#g)" stroke-width="1.1" stroke-linecap="round" />
  <path d="M25 21.3c2.6-.4 4.8-1.6 6.4-3.6" stroke="url(#g)" stroke-width="0.9" stroke-linecap="round" opacity="0.75" />
  <path d="M11.5 24.8c0-1 .8-1.9 1.8-2.1l2.3-.5 2.4-3.4c.6-.9 1.7-1.4 2.8-1.4h.4c1.1 0 2.2.5 2.8 1.4l2.4 3.4 2.3.5c1 .2 1.8 1.1 1.8 2.1v.9c0 .6-.5 1-1 1h-1.1a2.2 2.2 0 0 1-4.3 0h-6.2a2.2 2.2 0 0 1-4.3 0h-1.1c-.6 0-1-.4-1-1v-.9Z" stroke="url(#g)" stroke-width="1.4" stroke-linejoin="round" />
  <path d="M15.5 20.8h9" stroke="url(#g)" stroke-width="1.3" stroke-linecap="round" />
  <circle cx="16" cy="25.6" r="1.5" stroke="url(#g)" stroke-width="0.9" />
  <circle cx="24" cy="25.6" r="1.5" stroke="url(#g)" stroke-width="0.9" />
  <path d="M20 6.2 20.9 8l2 .3-1.45 1.4.35 2-1.8-.95-1.8.95.35-2L16.6 8.3l2-.3.4-1.8Z" fill="url(#g)" />
</svg>
